<svg width="356" height="512" viewBox="0 0 356 512" fill="none" xmlns="http://www.w3.org/2000/svg">
<path d="M0 95.7924C0 42.8877 42.8878 0 95.793 0H260.161C313.066 0 355.954 42.8877 355.954 95.7924C355.954 129.292 338.758 158.776 312.711 175.897C338.758 193.019 355.954 222.502 355.954 256.002C355.954 308.907 313.066 351.795 260.161 351.795H258.081C233.279 351.795 210.678 342.369 193.666 326.904V415.167C193.666 468.777 149.657 512 96.309 512C43.5361 512 0 469.243 0 416.207C0 382.709 17.1945 353.227 43.2392 336.105C17.1945 318.983 0 289.5 0 256.002C0 222.502 17.196 193.019 43.2425 175.897C17.196 158.776 0 129.292 0 95.7924ZM162.288 191.587H95.793C60.2172 191.587 31.3778 220.427 31.3778 256.002C31.3778 291.44 59.9948 320.194 95.381 320.416C95.518 320.415 95.655 320.415 95.793 320.415H162.288V191.587ZM193.666 256.002C193.666 291.577 222.505 320.417 258.081 320.417H260.161C295.737 320.417 324.576 291.577 324.576 256.002C324.576 220.427 295.737 191.587 260.161 191.587H258.081C222.505 191.587 193.666 220.427 193.666 256.002ZM95.793 351.795C95.655 351.795 95.518 351.794 95.381 351.794C59.9948 352.015 31.3778 380.769 31.3778 416.207C31.3778 451.652 60.6025 480.622 96.309 480.622C132.591 480.622 162.288 451.186 162.288 415.167V351.795H95.793ZM95.793 31.3778C60.2172 31.3778 31.3778 60.2173 31.3778 95.7924C31.3778 131.368 60.2172 160.207 95.793 160.207H162.288V31.3778H95.793ZM193.666 160.207H260.161C295.737 160.207 324.576 131.368 324.576 95.7924C324.576 60.2173 295.737 31.3778 260.161 31.3778H193.666V160.207Z" fill="#F38118"/>
</svg>
