<svg width="516" height="429" viewBox="0 0 516 429" fill="none" xmlns="http://www.w3.org/2000/svg">
<path d="M97.8132 15.5905V406.771" stroke="black" stroke-width="5" stroke-linecap="round"/>
<path d="M289.187 114.803C289.187 173.839 227.12 223.937 147.429 223.937C67.7369 223.937 5.67032 173.839 5.67032 114.803C5.67032 55.7673 67.7369 5.66928 147.429 5.66928C227.12 5.66928 289.187 55.7673 289.187 114.803Z" stroke="black" stroke-width="4"/>
<path d="M107.736 229.606L442.286 413.857" stroke="black" stroke-width="4" stroke-linecap="round"/>
<path d="M310.584 339.777C301.914 335.327 296.314 328.869 293.788 320.402C291.285 311.898 292.478 302.878 297.375 293.343L298.407 291.333C301.662 284.989 305.767 279.952 310.72 276.221C315.732 272.47 321.125 270.309 326.897 269.735C332.726 269.144 338.184 270.152 343.27 272.761C351.586 277.028 356.641 283.084 358.441 290.928C360.242 298.771 358.521 307.796 353.281 318.001L350.945 322.551L307.613 300.316C304.534 306.699 303.745 312.743 305.251 318.443C306.816 324.127 310.317 328.362 315.758 331.154C319.619 333.135 323.294 334.025 326.784 333.827C330.274 333.626 333.69 332.739 337.036 331.171L341.045 339.8C331.456 345.285 321.304 345.276 310.584 339.777ZM338.658 281.745C334.243 279.48 329.71 279.194 325.054 280.888C320.422 282.543 316.263 286.083 312.58 291.511L344.62 307.955L345.045 307.128C347.583 301.41 348.289 296.347 347.169 291.937C346.066 287.489 343.228 284.09 338.658 281.745Z" fill="black"/>
<path d="M447.897 376.63C442.7 384.873 435.773 389.879 427.118 391.648C418.422 393.394 409.54 391.41 400.473 385.692L398.562 384.488C392.529 380.686 387.87 376.154 384.59 370.89C381.296 365.569 379.617 360.008 379.555 354.208C379.481 348.349 380.967 343.003 384.015 338.17C388.999 330.264 395.477 325.762 403.45 324.663C411.422 323.56 420.262 326.069 429.97 332.189L434.296 334.915L408.32 376.111C414.41 379.74 420.364 381.058 426.176 380.06C431.974 379.003 436.505 375.89 439.762 370.72C442.079 367.046 443.289 363.466 443.397 359.974C443.505 356.479 442.927 352.998 441.656 349.528L450.607 346.297C455.225 356.328 454.324 366.439 447.897 376.63ZM392.557 343.555C389.912 347.751 389.228 352.244 390.504 357.026C391.743 361.788 394.907 366.241 399.991 370.388L419.196 339.927L418.411 339.431C412.936 336.401 407.955 335.25 403.464 335.978C398.933 336.684 395.299 339.21 392.557 343.555Z" fill="black"/>
</svg>
